<svg width="56" height="56" viewBox="0 0 56 56" fill="none" xmlns="http://www.w3.org/2000/svg">
<path d="M50.2381 47.7619L39.2853 36.8113C42.4599 33 44.0429 28.1116 43.705 23.1629C43.3672 18.2142 41.1344 13.5863 37.4713 10.2418C33.8082 6.89739 28.9967 5.09394 24.0378 5.20664C19.0789 5.31934 14.3543 7.33951 10.8469 10.8469C7.33951 14.3543 5.31934 19.0789 5.20664 24.0378C5.09394 28.9967 6.89739 33.8082 10.2418 37.4713C13.5863 41.1344 18.2142 43.3672 23.1629 43.705C28.1116 44.0429 33 42.4599 36.8113 39.2853L47.7619 50.2381C47.9245 50.4007 48.1175 50.5297 48.3299 50.6177C48.5424 50.7057 48.7701 50.751 49 50.751C49.23 50.751 49.4576 50.7057 49.6701 50.6177C49.8825 50.5297 50.0755 50.4007 50.2381 50.2381C50.4007 50.0755 50.5297 49.8825 50.6177 49.6701C50.7057 49.4576 50.751 49.23 50.751 49C50.751 48.7701 50.7057 48.5424 50.6177 48.3299C50.5297 48.1175 50.4007 47.9245 50.2381 47.7619ZM8.75001 24.5C8.75001 21.385 9.67373 18.3399 11.4044 15.7498C13.135 13.1597 15.5948 11.141 18.4727 9.94891C21.3507 8.75683 24.5175 8.44493 27.5727 9.05264C30.6279 9.66036 33.4343 11.1604 35.6369 13.3631C37.8396 15.5658 39.3397 18.3721 39.9474 21.4273C40.5551 24.4825 40.2432 27.6493 39.0511 30.5273C37.859 33.4052 35.8403 35.865 33.2502 37.5957C30.6602 39.3263 27.6151 40.25 24.5 40.25C20.3243 40.2454 16.3209 38.5845 13.3682 35.6318C10.4155 32.6791 8.75464 28.6757 8.75001 24.5Z" fill="black"/>
</svg>
