<svg width="56" height="56" viewBox="0 0 56 56" fill="none" xmlns="http://www.w3.org/2000/svg">
<path d="M47.2041 25.8497C47.1379 25.5692 47.0034 25.3095 46.8126 25.0935C46.6217 24.8775 46.3805 24.7119 46.1104 24.6116L33.5082 19.8844L36.7151 3.84346C36.7877 3.47076 36.7371 3.08455 36.571 2.74311C36.4048 2.40167 36.1322 2.12353 35.7941 1.95066C35.456 1.7778 35.0709 1.71958 34.6968 1.7848C34.3227 1.85002 33.98 2.03513 33.7204 2.31221L9.22038 28.5622C9.0214 28.7719 8.87745 29.0276 8.8014 29.3065C8.72535 29.5853 8.71956 29.8787 8.78456 30.1604C8.84956 30.442 8.98332 30.7032 9.17388 30.9206C9.36445 31.1379 9.60589 31.3047 9.87663 31.406L22.4832 36.1331L19.2851 52.1566C19.2125 52.5293 19.263 52.9155 19.4292 53.2569C19.5953 53.5984 19.868 53.8765 20.2061 54.0494C20.5441 54.2222 20.9293 54.2805 21.3033 54.2152C21.6774 54.15 22.0201 53.9649 22.2798 53.6878L46.7798 27.4378C46.9751 27.2281 47.116 26.9736 47.19 26.6967C47.264 26.4198 47.2689 26.1289 47.2041 25.8497ZM23.9248 46.8125L26.2151 35.3544C26.297 34.948 26.2321 34.5258 26.0318 34.1628C25.8315 33.7999 25.5088 33.5198 25.1213 33.3725L13.5626 29.0303L32.0732 9.19846L29.7851 20.6566C29.7031 21.063 29.7681 21.4852 29.9684 21.8482C30.1687 22.2111 30.4913 22.4912 30.8788 22.6385L42.4288 26.9697L23.9248 46.8125Z" fill="black"/>
</svg>
